G04 #@! TF.GenerationSoftware,KiCad,Pcbnew,(5.99.0-10960-g5f1e9bc8a7)*
G04 #@! TF.CreationDate,2021-09-24T19:17:02+02:00*
G04 #@! TF.ProjectId,Unified-Daughterboard,556e6966-6965-4642-9d44-617567687465,C3*
G04 #@! TF.SameCoordinates,Original*
G04 #@! TF.FileFunction,Copper,L1,Top*
G04 #@! TF.FilePolarity,Positive*
%FSLAX46Y46*%
G04 Gerber Fmt 4.6, Leading zero omitted, Abs format (unit mm)*
G04 Created by KiCad (PCBNEW (5.99.0-10960-g5f1e9bc8a7)) date 2021-09-24 19:17:02*
%MOMM*%
%LPD*%
G01*
G04 APERTURE LIST*
G04 Aperture macros list*
%AMRoundRect*
0 Rectangle with rounded corners*
0 $1 Rounding radius*
0 $2 $3 $4 $5 $6 $7 $8 $9 X,Y pos of 4 corners*
0 Add a 4 corners polygon primitive as box body*
4,1,4,$2,$3,$4,$5,$6,$7,$8,$9,$2,$3,0*
0 Add four circle primitives for the rounded corners*
1,1,$1+$1,$2,$3*
1,1,$1+$1,$4,$5*
1,1,$1+$1,$6,$7*
1,1,$1+$1,$8,$9*
0 Add four rect primitives between the rounded corners*
20,1,$1+$1,$2,$3,$4,$5,0*
20,1,$1+$1,$4,$5,$6,$7,0*
20,1,$1+$1,$6,$7,$8,$9,0*
20,1,$1+$1,$8,$9,$2,$3,0*%
G04 Aperture macros list end*
G04 #@! TA.AperFunction,ComponentPad*
%ADD10C,3.500001*%
G04 #@! TD*
G04 #@! TA.AperFunction,WasherPad*
%ADD11C,3.500001*%
G04 #@! TD*
G04 #@! TA.AperFunction,SMDPad,CuDef*
%ADD12RoundRect,0.150000X0.150000X0.575000X-0.150000X0.575000X-0.150000X-0.575000X0.150000X-0.575000X0*%
G04 #@! TD*
G04 #@! TA.AperFunction,SMDPad,CuDef*
%ADD13RoundRect,0.075000X0.075000X0.650000X-0.075000X0.650000X-0.075000X-0.650000X0.075000X-0.650000X0*%
G04 #@! TD*
G04 #@! TA.AperFunction,ComponentPad*
%ADD14O,1.100000X2.200000*%
G04 #@! TD*
G04 #@! TA.AperFunction,ComponentPad*
%ADD15O,1.300000X1.900000*%
G04 #@! TD*
G04 #@! TA.AperFunction,SMDPad,CuDef*
%ADD16R,1.200000X1.800000*%
G04 #@! TD*
G04 #@! TA.AperFunction,SMDPad,CuDef*
%ADD17R,0.600000X1.550000*%
G04 #@! TD*
G04 #@! TA.AperFunction,SMDPad,CuDef*
%ADD18RoundRect,0.250000X0.250000X0.350000X-0.250000X0.350000X-0.250000X-0.350000X0.250000X-0.350000X0*%
G04 #@! TD*
G04 #@! TA.AperFunction,SMDPad,CuDef*
%ADD19RoundRect,0.250000X-0.625000X0.375000X-0.625000X-0.375000X0.625000X-0.375000X0.625000X0.375000X0*%
G04 #@! TD*
G04 #@! TA.AperFunction,SMDPad,CuDef*
%ADD20RoundRect,0.125000X0.000000X-0.150000X0.000000X-0.150000X0.000000X0.150000X0.000000X0.150000X0*%
G04 #@! TD*
G04 #@! TA.AperFunction,SMDPad,CuDef*
%ADD21R,0.250000X0.550000*%
G04 #@! TD*
G04 #@! TA.AperFunction,SMDPad,CuDef*
%ADD22R,0.300000X0.550000*%
G04 #@! TD*
G04 #@! TA.AperFunction,SMDPad,CuDef*
%ADD23R,0.900000X0.500000*%
G04 #@! TD*
G04 #@! TA.AperFunction,SMDPad,CuDef*
%ADD24RoundRect,0.250000X0.625000X-0.375000X0.625000X0.375000X-0.625000X0.375000X-0.625000X-0.375000X0*%
G04 #@! TD*
G04 #@! TA.AperFunction,ViaPad*
%ADD25C,0.450000*%
G04 #@! TD*
G04 #@! TA.AperFunction,ViaPad*
%ADD26C,0.508000*%
G04 #@! TD*
G04 #@! TA.AperFunction,Conductor*
%ADD27C,0.508000*%
G04 #@! TD*
G04 #@! TA.AperFunction,Conductor*
%ADD28C,0.152400*%
G04 #@! TD*
G04 #@! TA.AperFunction,Conductor*
%ADD29C,0.254000*%
G04 #@! TD*
G04 APERTURE END LIST*
D10*
X82004500Y-58543000D03*
D11*
X68004500Y-58543000D03*
D12*
X78252500Y-62618000D03*
X77452500Y-62618000D03*
D13*
X76252500Y-62618000D03*
X75256500Y-62618000D03*
X74752500Y-62618000D03*
X73752500Y-62618000D03*
D12*
X71752500Y-62618000D03*
X72552500Y-62618000D03*
D13*
X73252500Y-62618000D03*
X74252500Y-62618000D03*
X75752500Y-62618000D03*
X76752500Y-62618000D03*
D14*
X79302500Y-61843000D03*
D15*
X70702500Y-57643000D03*
X79302500Y-57643000D03*
D14*
X70702500Y-61843000D03*
D16*
X77804500Y-71893000D03*
X72204500Y-71893000D03*
D17*
X73504500Y-68018000D03*
X74504500Y-68018000D03*
X75504500Y-68018000D03*
X76504500Y-68018000D03*
D18*
X70302500Y-66890000D03*
X67002500Y-66890000D03*
D11*
X82004500Y-71043000D03*
X68004500Y-71043000D03*
D19*
X67890500Y-61807000D03*
X67890500Y-64607000D03*
D20*
X74002500Y-66411400D03*
D21*
X74502500Y-66411400D03*
D22*
X75002500Y-66411400D03*
D21*
X75502500Y-66411400D03*
X76002500Y-66411400D03*
X76002500Y-65641400D03*
X75502500Y-65641400D03*
D22*
X75002500Y-65641400D03*
D21*
X74502500Y-65641400D03*
X74002500Y-65641400D03*
D23*
X71954500Y-66379000D03*
X71954500Y-67879000D03*
X77923500Y-66379000D03*
X77923500Y-67879000D03*
D24*
X81987500Y-67274000D03*
X81987500Y-64474000D03*
D25*
X75002500Y-66026400D03*
D26*
X75502500Y-68016000D03*
D25*
X73732500Y-66890000D03*
D26*
X74504500Y-68018000D03*
D25*
X76272500Y-66890000D03*
D26*
X77402500Y-63943000D03*
X72552500Y-63943000D03*
D27*
X70064500Y-69049000D02*
X72473500Y-69049000D01*
X67707000Y-68215500D02*
X69231000Y-68215500D01*
X79415500Y-69430000D02*
X81647700Y-67197800D01*
X81647700Y-67197800D02*
X81987500Y-67197800D01*
X76504500Y-68018000D02*
X77916500Y-69430000D01*
X77916500Y-69430000D02*
X79415500Y-69430000D01*
X73504500Y-67814000D02*
X73504500Y-68018000D01*
X67002500Y-66890000D02*
X67002500Y-67511000D01*
X67002500Y-65495000D02*
X67890500Y-64607000D01*
X73504500Y-68018000D02*
X73504500Y-68018000D01*
X67002500Y-66890000D02*
X67002500Y-65495000D01*
X69231000Y-68215500D02*
X70064500Y-69049000D01*
X72473500Y-69049000D02*
X73504500Y-68018000D01*
X67002500Y-67511000D02*
X67707000Y-68215500D01*
X67129500Y-65368000D02*
X67890500Y-64607000D01*
D28*
X77923500Y-66379000D02*
X77213500Y-66379000D01*
X77213500Y-66379000D02*
X76577500Y-65743000D01*
X76577500Y-64818000D02*
X76252500Y-64493000D01*
X76252500Y-64493000D02*
X76252500Y-62068000D01*
X76577500Y-65743000D02*
X76577500Y-64818000D01*
D29*
X75256020Y-64842348D02*
X75256020Y-62068480D01*
X74002500Y-66620000D02*
X73732500Y-66890000D01*
X74002500Y-66411400D02*
X74002500Y-66620000D01*
X75504500Y-68018000D02*
X75504500Y-68018000D01*
D28*
X74252500Y-64667190D02*
X74252500Y-62068000D01*
D29*
X75502500Y-65088828D02*
X75256020Y-64842348D01*
D28*
X75502500Y-66411400D02*
X75502500Y-65088828D01*
D29*
X75502500Y-66890000D02*
X75502500Y-65641400D01*
X75256020Y-62068480D02*
X75256500Y-62068000D01*
D28*
X74002500Y-66411400D02*
X74002500Y-64917190D01*
D29*
X75502500Y-66890000D02*
X75502500Y-68016000D01*
D28*
X74002500Y-64917190D02*
X74252500Y-64667190D01*
D29*
X75502500Y-68016000D02*
X75504500Y-68018000D01*
X75502500Y-66890000D02*
X75502500Y-65088828D01*
X75502500Y-66890000D02*
X75502500Y-66411400D01*
X73252500Y-65704000D02*
X72577500Y-66379000D01*
X73252500Y-62593000D02*
X73252500Y-65704000D01*
X72577500Y-66379000D02*
X71954500Y-66379000D01*
X74502500Y-65088828D02*
X74502500Y-65057432D01*
D28*
X76002500Y-64948583D02*
X75752500Y-64698583D01*
D29*
X74504500Y-68018000D02*
X74504500Y-66892000D01*
D28*
X75752500Y-64698583D02*
X75752500Y-62068000D01*
D29*
X74504500Y-66892000D02*
X74502500Y-66890000D01*
X74502500Y-65057432D02*
X74752500Y-64807432D01*
D28*
X74502500Y-66411400D02*
X74502500Y-65088828D01*
D29*
X76002500Y-66620000D02*
X76272500Y-66890000D01*
D28*
X76002500Y-66411400D02*
X76002500Y-64948583D01*
D29*
X74502500Y-66890000D02*
X74502500Y-66411400D01*
X74752500Y-64807432D02*
X74752500Y-62068000D01*
X76002500Y-66411400D02*
X76002500Y-66620000D01*
X74502500Y-66890000D02*
X74502500Y-65088828D01*
D27*
X77452500Y-63893000D02*
X77402500Y-63943000D01*
X72552500Y-62068000D02*
X72552500Y-63943000D01*
X70026500Y-63943000D02*
X67890500Y-61807000D01*
X72552500Y-63943000D02*
X70026500Y-63943000D01*
X77452500Y-62068000D02*
X77452500Y-63893000D01*
G04 #@! TA.AperFunction,Conductor*
G36*
X81977046Y-56698329D02*
G01*
X81982976Y-56700034D01*
X81987899Y-56700124D01*
X81987901Y-56700124D01*
X82089488Y-56701974D01*
X82093484Y-56702154D01*
X82163863Y-56707188D01*
X82169200Y-56707761D01*
X82280822Y-56723810D01*
X82363537Y-56735702D01*
X82368806Y-56736654D01*
X82382111Y-56739548D01*
X82423498Y-56748552D01*
X82428698Y-56749879D01*
X82617070Y-56805189D01*
X82622164Y-56806884D01*
X82674614Y-56826447D01*
X82679573Y-56828502D01*
X82858167Y-56910063D01*
X82862968Y-56912466D01*
X82912063Y-56939274D01*
X82916679Y-56942013D01*
X83081853Y-57048163D01*
X83086263Y-57051225D01*
X83131077Y-57084773D01*
X83135256Y-57088140D01*
X83283626Y-57216702D01*
X83287555Y-57220361D01*
X83327148Y-57259954D01*
X83330806Y-57263883D01*
X83459354Y-57412236D01*
X83462722Y-57416415D01*
X83496277Y-57461238D01*
X83499339Y-57465648D01*
X83605475Y-57630800D01*
X83608214Y-57635416D01*
X83635037Y-57684538D01*
X83637440Y-57689339D01*
X83718998Y-57867928D01*
X83721053Y-57872887D01*
X83740613Y-57925329D01*
X83742308Y-57930423D01*
X83797622Y-58118804D01*
X83798949Y-58124004D01*
X83810848Y-58178704D01*
X83811799Y-58183969D01*
X83839739Y-58378300D01*
X83840312Y-58383637D01*
X83845346Y-58454016D01*
X83845526Y-58458012D01*
X83847362Y-58558792D01*
X83847466Y-58564525D01*
X83849171Y-58570453D01*
X83852100Y-58591236D01*
X83852100Y-69524031D01*
X83834507Y-69572369D01*
X83789958Y-69598089D01*
X83739300Y-69589156D01*
X83720840Y-69574154D01*
X83589852Y-69427652D01*
X83589851Y-69427651D01*
X83588188Y-69425791D01*
X83579053Y-69417961D01*
X83362285Y-69232169D01*
X83362283Y-69232168D01*
X83360390Y-69230545D01*
X83358299Y-69229187D01*
X83110859Y-69068497D01*
X83110852Y-69068493D01*
X83108770Y-69067141D01*
X83009355Y-69019935D01*
X82839998Y-68939518D01*
X82839993Y-68939516D01*
X82837750Y-68938451D01*
X82835384Y-68937691D01*
X82835378Y-68937689D01*
X82554474Y-68847501D01*
X82554468Y-68847500D01*
X82552090Y-68846736D01*
X82549628Y-68846293D01*
X82549624Y-68846292D01*
X82259275Y-68794049D01*
X82259267Y-68794048D01*
X82256810Y-68793606D01*
X81957097Y-68779996D01*
X81732702Y-68799628D01*
X81660707Y-68805927D01*
X81660705Y-68805927D01*
X81658217Y-68806145D01*
X81365420Y-68871593D01*
X81216663Y-68926325D01*
X81086186Y-68974331D01*
X81086183Y-68974332D01*
X81083852Y-68975190D01*
X81081658Y-68976347D01*
X81081653Y-68976349D01*
X81039409Y-68998622D01*
X80818458Y-69115116D01*
X80573902Y-69288913D01*
X80393598Y-69457050D01*
X80360208Y-69488187D01*
X80354480Y-69493528D01*
X80352898Y-69495454D01*
X80352897Y-69495455D01*
X80170672Y-69717299D01*
X80164046Y-69725365D01*
X80005948Y-69980351D01*
X79882962Y-70254007D01*
X79797249Y-70541525D01*
X79750316Y-70837853D01*
X79750255Y-70840338D01*
X79750255Y-70840341D01*
X79745384Y-71039643D01*
X79742985Y-71137786D01*
X79775388Y-71436053D01*
X79846953Y-71727414D01*
X79847864Y-71729738D01*
X79847866Y-71729745D01*
X79851901Y-71740040D01*
X79956424Y-72006751D01*
X80101877Y-72269157D01*
X80280758Y-72510019D01*
X80489923Y-72725108D01*
X80491889Y-72726655D01*
X80491890Y-72726656D01*
X80529566Y-72756304D01*
X80556673Y-72800022D01*
X80549336Y-72850936D01*
X80510989Y-72885222D01*
X80483062Y-72890600D01*
X78682218Y-72890600D01*
X78633880Y-72873007D01*
X78608160Y-72828458D01*
X78608462Y-72800733D01*
X78609279Y-72796625D01*
X78609279Y-72796624D01*
X78610000Y-72793000D01*
X78610000Y-70993000D01*
X78594357Y-70914359D01*
X78549810Y-70847690D01*
X78543653Y-70843576D01*
X78489300Y-70807258D01*
X78489299Y-70807257D01*
X78483141Y-70803143D01*
X78404500Y-70787500D01*
X77204500Y-70787500D01*
X77125859Y-70803143D01*
X77119701Y-70807257D01*
X77119700Y-70807258D01*
X77065347Y-70843576D01*
X77059190Y-70847690D01*
X77014643Y-70914359D01*
X76999000Y-70993000D01*
X76999000Y-72793000D01*
X76999721Y-72796624D01*
X76999721Y-72796625D01*
X77000538Y-72800733D01*
X76992710Y-72851574D01*
X76954034Y-72885488D01*
X76926782Y-72890600D01*
X73082218Y-72890600D01*
X73033880Y-72873007D01*
X73008160Y-72828458D01*
X73008462Y-72800733D01*
X73009279Y-72796625D01*
X73009279Y-72796624D01*
X73010000Y-72793000D01*
X73010000Y-70993000D01*
X72994357Y-70914359D01*
X72949810Y-70847690D01*
X72943653Y-70843576D01*
X72889300Y-70807258D01*
X72889299Y-70807257D01*
X72883141Y-70803143D01*
X72804500Y-70787500D01*
X71604500Y-70787500D01*
X71525859Y-70803143D01*
X71519701Y-70807257D01*
X71519700Y-70807258D01*
X71465347Y-70843576D01*
X71459190Y-70847690D01*
X71414643Y-70914359D01*
X71399000Y-70993000D01*
X71399000Y-72793000D01*
X71399721Y-72796624D01*
X71399721Y-72796625D01*
X71400538Y-72800733D01*
X71392710Y-72851574D01*
X71354034Y-72885488D01*
X71326782Y-72890600D01*
X69527167Y-72890600D01*
X69478829Y-72873007D01*
X69453109Y-72828458D01*
X69462042Y-72777800D01*
X69481077Y-72755980D01*
X69505324Y-72737172D01*
X69505329Y-72737167D01*
X69507297Y-72735641D01*
X69717958Y-72522018D01*
X69898516Y-72282409D01*
X69905984Y-72269157D01*
X70044574Y-72023199D01*
X70044576Y-72023194D01*
X70045798Y-72021026D01*
X70157216Y-71742460D01*
X70230814Y-71451605D01*
X70265298Y-71153571D01*
X70268000Y-71043000D01*
X70248116Y-70743638D01*
X70188815Y-70449535D01*
X70091137Y-70165858D01*
X69956800Y-69897593D01*
X69788162Y-69649450D01*
X69654861Y-69500361D01*
X69649756Y-69494651D01*
X69641278Y-69473454D01*
X69633482Y-69471832D01*
X69616994Y-69458009D01*
X69616543Y-69457504D01*
X69606661Y-69446452D01*
X69598174Y-69425234D01*
X69591069Y-69424612D01*
X69573912Y-69413555D01*
X69362285Y-69232169D01*
X69362283Y-69232168D01*
X69360390Y-69230545D01*
X69358299Y-69229187D01*
X69110859Y-69068497D01*
X69110852Y-69068493D01*
X69108770Y-69067141D01*
X69009355Y-69019935D01*
X68839998Y-68939518D01*
X68839993Y-68939516D01*
X68837750Y-68938451D01*
X68835384Y-68937691D01*
X68835378Y-68937689D01*
X68554474Y-68847501D01*
X68554468Y-68847500D01*
X68552090Y-68846736D01*
X68549628Y-68846293D01*
X68549624Y-68846292D01*
X68399115Y-68819211D01*
X68354657Y-68793336D01*
X68337232Y-68744937D01*
X68354995Y-68696661D01*
X68399632Y-68671097D01*
X68412432Y-68670000D01*
X69011592Y-68670000D01*
X69059930Y-68687593D01*
X69064766Y-68692026D01*
X69676024Y-69303284D01*
X69687806Y-69328549D01*
X69698257Y-69330055D01*
X69715895Y-69343155D01*
X69721670Y-69348930D01*
X69727553Y-69355549D01*
X69732111Y-69361331D01*
X69737508Y-69377700D01*
X69741352Y-69378254D01*
X69749733Y-69384276D01*
X69749951Y-69383961D01*
X69799345Y-69418100D01*
X69801201Y-69419426D01*
X69849487Y-69455091D01*
X69854602Y-69456887D01*
X69854870Y-69457050D01*
X69855188Y-69457206D01*
X69857264Y-69458264D01*
X69857594Y-69458439D01*
X69857890Y-69458563D01*
X69862348Y-69461644D01*
X69919585Y-69479746D01*
X69921800Y-69480486D01*
X69978398Y-69500361D01*
X69983815Y-69500574D01*
X69984815Y-69500827D01*
X69988533Y-69501551D01*
X69992618Y-69502843D01*
X69997926Y-69503261D01*
X69999488Y-69503384D01*
X69999496Y-69503384D01*
X70000966Y-69503500D01*
X70056816Y-69503500D01*
X70059768Y-69503558D01*
X70114923Y-69505725D01*
X70120354Y-69504285D01*
X70123354Y-69503954D01*
X70131604Y-69503500D01*
X72443169Y-69503500D01*
X72452008Y-69504021D01*
X72487933Y-69508273D01*
X72493463Y-69507263D01*
X72493465Y-69507263D01*
X72517864Y-69502807D01*
X72546964Y-69497492D01*
X72549255Y-69497111D01*
X72586155Y-69491563D01*
X72603052Y-69489023D01*
X72603053Y-69489023D01*
X72608612Y-69488187D01*
X72613499Y-69485840D01*
X72613796Y-69485768D01*
X72614119Y-69485657D01*
X72616363Y-69484928D01*
X72616713Y-69484820D01*
X72617006Y-69484700D01*
X72622340Y-69483726D01*
X72675570Y-69456075D01*
X72677683Y-69455020D01*
X72726708Y-69431478D01*
X72731777Y-69429044D01*
X72735755Y-69425366D01*
X72736627Y-69424846D01*
X72739782Y-69422721D01*
X72743587Y-69420744D01*
X72746843Y-69417963D01*
X72746846Y-69417961D01*
X72748848Y-69416251D01*
X72748855Y-69416245D01*
X72749955Y-69415305D01*
X72789429Y-69375831D01*
X72791557Y-69373784D01*
X72792770Y-69372663D01*
X72832108Y-69336299D01*
X72834935Y-69331432D01*
X72836813Y-69329088D01*
X72842329Y-69322931D01*
X73145325Y-69019935D01*
X73191945Y-68998195D01*
X73203278Y-68998257D01*
X73204500Y-68998500D01*
X73804500Y-68998500D01*
X73883141Y-68982857D01*
X73894152Y-68975500D01*
X73943653Y-68942424D01*
X73949810Y-68938310D01*
X73952578Y-68934167D01*
X73997946Y-68913011D01*
X74047633Y-68926325D01*
X74055712Y-68933104D01*
X74059190Y-68938310D01*
X74065347Y-68942424D01*
X74114849Y-68975500D01*
X74125859Y-68982857D01*
X74204500Y-68998500D01*
X74804500Y-68998500D01*
X74883141Y-68982857D01*
X74894152Y-68975500D01*
X74943653Y-68942424D01*
X74949810Y-68938310D01*
X74952578Y-68934167D01*
X74997946Y-68913011D01*
X75047633Y-68926325D01*
X75055712Y-68933104D01*
X75059190Y-68938310D01*
X75065347Y-68942424D01*
X75114849Y-68975500D01*
X75125859Y-68982857D01*
X75204500Y-68998500D01*
X75804500Y-68998500D01*
X75883141Y-68982857D01*
X75894152Y-68975500D01*
X75943653Y-68942424D01*
X75949810Y-68938310D01*
X75952578Y-68934167D01*
X75997946Y-68913011D01*
X76047633Y-68926325D01*
X76055712Y-68933104D01*
X76059190Y-68938310D01*
X76065347Y-68942424D01*
X76114849Y-68975500D01*
X76125859Y-68982857D01*
X76204500Y-68998500D01*
X76804500Y-68998500D01*
X76804500Y-68998622D01*
X76852960Y-69011042D01*
X76863675Y-69019935D01*
X77573670Y-69729930D01*
X77579552Y-69736548D01*
X77601951Y-69764961D01*
X77651345Y-69799100D01*
X77653201Y-69800426D01*
X77701487Y-69836091D01*
X77706602Y-69837887D01*
X77706870Y-69838050D01*
X77707188Y-69838206D01*
X77709264Y-69839264D01*
X77709594Y-69839439D01*
X77709890Y-69839563D01*
X77714348Y-69842644D01*
X77771585Y-69860746D01*
X77773800Y-69861486D01*
X77830398Y-69881361D01*
X77835815Y-69881574D01*
X77836815Y-69881827D01*
X77840533Y-69882551D01*
X77844618Y-69883843D01*
X77849926Y-69884261D01*
X77851488Y-69884384D01*
X77851496Y-69884384D01*
X77852966Y-69884500D01*
X77908800Y-69884500D01*
X77911753Y-69884558D01*
X77966923Y-69886726D01*
X77972358Y-69885285D01*
X77975355Y-69884954D01*
X77983607Y-69884500D01*
X79385169Y-69884500D01*
X79394008Y-69885021D01*
X79429933Y-69889273D01*
X79435463Y-69888263D01*
X79435465Y-69888263D01*
X79459864Y-69883807D01*
X79488964Y-69878492D01*
X79491255Y-69878111D01*
X79528155Y-69872563D01*
X79545052Y-69870023D01*
X79545053Y-69870023D01*
X79550612Y-69869187D01*
X79555499Y-69866840D01*
X79555796Y-69866768D01*
X79556119Y-69866657D01*
X79558363Y-69865928D01*
X79558713Y-69865820D01*
X79559006Y-69865700D01*
X79564340Y-69864726D01*
X79617570Y-69837075D01*
X79619683Y-69836020D01*
X79668708Y-69812478D01*
X79673777Y-69810044D01*
X79677755Y-69806366D01*
X79678627Y-69805846D01*
X79681782Y-69803721D01*
X79685587Y-69801744D01*
X79688843Y-69798963D01*
X79688846Y-69798961D01*
X79690848Y-69797251D01*
X79690855Y-69797245D01*
X79691955Y-69796305D01*
X79731429Y-69756831D01*
X79733557Y-69754784D01*
X79745729Y-69743532D01*
X79774108Y-69717299D01*
X79776935Y-69712432D01*
X79778813Y-69710088D01*
X79784329Y-69703931D01*
X81366734Y-68121526D01*
X81413354Y-68099786D01*
X81419908Y-68099500D01*
X82645758Y-68099500D01*
X82648535Y-68099083D01*
X82648542Y-68099082D01*
X82696836Y-68091821D01*
X82746435Y-68084364D01*
X82816044Y-68050938D01*
X82863463Y-68028168D01*
X82863465Y-68028167D01*
X82868529Y-68025735D01*
X82967986Y-67933798D01*
X83036013Y-67816681D01*
X83039218Y-67802856D01*
X83062032Y-67704428D01*
X83063000Y-67700252D01*
X83063000Y-66865742D01*
X83062583Y-66862965D01*
X83062582Y-66862958D01*
X83049872Y-66778424D01*
X83047864Y-66765065D01*
X82997587Y-66660364D01*
X82991668Y-66648037D01*
X82991667Y-66648035D01*
X82989235Y-66642971D01*
X82897298Y-66543514D01*
X82780181Y-66475487D01*
X82774708Y-66474218D01*
X82774707Y-66474218D01*
X82688296Y-66454189D01*
X82663752Y-66448500D01*
X81329242Y-66448500D01*
X81326465Y-66448917D01*
X81326458Y-66448918D01*
X81278164Y-66456179D01*
X81228565Y-66463636D01*
X81187705Y-66483257D01*
X81111537Y-66519832D01*
X81111535Y-66519833D01*
X81106471Y-66522265D01*
X81007014Y-66614202D01*
X80938987Y-66731319D01*
X80937718Y-66736792D01*
X80937718Y-66736793D01*
X80919650Y-66814742D01*
X80912000Y-66847748D01*
X80912000Y-67259592D01*
X80894407Y-67307930D01*
X80889974Y-67312766D01*
X79249266Y-68953474D01*
X79202646Y-68975214D01*
X79196092Y-68975500D01*
X78135908Y-68975500D01*
X78087570Y-68957907D01*
X78082734Y-68953474D01*
X77032026Y-67902766D01*
X77010286Y-67856146D01*
X77010000Y-67849592D01*
X77010000Y-67243000D01*
X76994357Y-67164359D01*
X76949810Y-67097690D01*
X76943653Y-67093576D01*
X76889300Y-67057258D01*
X76889299Y-67057257D01*
X76883141Y-67053143D01*
X76804500Y-67037500D01*
X76767686Y-67037500D01*
X76719348Y-67019907D01*
X76693628Y-66975358D01*
X76693412Y-66950536D01*
X76702074Y-66895847D01*
X76703000Y-66890000D01*
X76699604Y-66868555D01*
X76683702Y-66768156D01*
X76681930Y-66756968D01*
X76631367Y-66657732D01*
X76623471Y-66642235D01*
X76623470Y-66642234D01*
X76620782Y-66636958D01*
X76525542Y-66541718D01*
X76507204Y-66532374D01*
X76462418Y-66509555D01*
X76405532Y-66480570D01*
X76399688Y-66479644D01*
X76399687Y-66479644D01*
X76397678Y-66479326D01*
X76396433Y-66479129D01*
X76394072Y-66477820D01*
X76394059Y-66477816D01*
X76394060Y-66477813D01*
X76351444Y-66454189D01*
X76333000Y-66404855D01*
X76333000Y-66136400D01*
X76320134Y-66071720D01*
X76327959Y-66020880D01*
X76366633Y-65986963D01*
X76418061Y-65985841D01*
X76447063Y-66003876D01*
X76981516Y-66538329D01*
X76985233Y-66542635D01*
X76987346Y-66546957D01*
X76992434Y-66551677D01*
X76992435Y-66551678D01*
X77024980Y-66581867D01*
X77027012Y-66583825D01*
X77036827Y-66593640D01*
X77039534Y-66595497D01*
X77042153Y-66597797D01*
X77048188Y-66603395D01*
X77062973Y-66617110D01*
X77074486Y-66621704D01*
X77089153Y-66629535D01*
X77099372Y-66636545D01*
X77121421Y-66641777D01*
X77124394Y-66642483D01*
X77134896Y-66645805D01*
X77153852Y-66653368D01*
X77153857Y-66653369D01*
X77158784Y-66655335D01*
X77162507Y-66655700D01*
X77171284Y-66655700D01*
X77188647Y-66657732D01*
X77192984Y-66658761D01*
X77199739Y-66660364D01*
X77206618Y-66659428D01*
X77213553Y-66659767D01*
X77213463Y-66661602D01*
X77254938Y-66670603D01*
X77282867Y-66703738D01*
X77283643Y-66707641D01*
X77328190Y-66774310D01*
X77394859Y-66818857D01*
X77473500Y-66834500D01*
X78373500Y-66834500D01*
X78452141Y-66818857D01*
X78518810Y-66774310D01*
X78563357Y-66707641D01*
X78569537Y-66676574D01*
X78578279Y-66632625D01*
X78578279Y-66632624D01*
X78579000Y-66629000D01*
X78579000Y-66129000D01*
X78563357Y-66050359D01*
X78547801Y-66027077D01*
X78522924Y-65989847D01*
X78518810Y-65983690D01*
X78494739Y-65967606D01*
X78458300Y-65943258D01*
X78458299Y-65943257D01*
X78452141Y-65939143D01*
X78417358Y-65932224D01*
X78377125Y-65924221D01*
X78377124Y-65924221D01*
X78373500Y-65923500D01*
X77473500Y-65923500D01*
X77469876Y-65924221D01*
X77469875Y-65924221D01*
X77429642Y-65932224D01*
X77394859Y-65939143D01*
X77388701Y-65943257D01*
X77388700Y-65943258D01*
X77352261Y-65967606D01*
X77328190Y-65983690D01*
X77324076Y-65989847D01*
X77323042Y-65990881D01*
X77276422Y-66012621D01*
X77226735Y-65999307D01*
X77216694Y-65990881D01*
X76876226Y-65650413D01*
X76854486Y-65603793D01*
X76854200Y-65597239D01*
X76854200Y-64869368D01*
X76854616Y-64863701D01*
X76856178Y-64859151D01*
X76854253Y-64807876D01*
X76854200Y-64805056D01*
X76854200Y-64791153D01*
X76853599Y-64787927D01*
X76853373Y-64784444D01*
X76852569Y-64763009D01*
X76852568Y-64763007D01*
X76852308Y-64756069D01*
X76847418Y-64744686D01*
X76842582Y-64728771D01*
X76841584Y-64723414D01*
X76840313Y-64716589D01*
X76826817Y-64694693D01*
X76821740Y-64684920D01*
X76813684Y-64666169D01*
X76813683Y-64666168D01*
X76811588Y-64661291D01*
X76809214Y-64658401D01*
X76803009Y-64652196D01*
X76792167Y-64638480D01*
X76789830Y-64634689D01*
X76789829Y-64634688D01*
X76786185Y-64628776D01*
X76762707Y-64610923D01*
X76755051Y-64604238D01*
X76551226Y-64400413D01*
X76529486Y-64353793D01*
X76529200Y-64347239D01*
X76529200Y-63610633D01*
X76546793Y-63562295D01*
X76591342Y-63536575D01*
X76619070Y-63536878D01*
X76648736Y-63542779D01*
X76648741Y-63542779D01*
X76652363Y-63543500D01*
X76852637Y-63543500D01*
X76885928Y-63536878D01*
X76908129Y-63532462D01*
X76958970Y-63540287D01*
X76992887Y-63578962D01*
X76998000Y-63606217D01*
X76998000Y-63708693D01*
X76990895Y-63739345D01*
X76989856Y-63740848D01*
X76988161Y-63746206D01*
X76988161Y-63746207D01*
X76971758Y-63798073D01*
X76971014Y-63800300D01*
X76951139Y-63856898D01*
X76950926Y-63862314D01*
X76950849Y-63862618D01*
X76950792Y-63862980D01*
X76950388Y-63865289D01*
X76950323Y-63865630D01*
X76950292Y-63865949D01*
X76948657Y-63871118D01*
X76948613Y-63876738D01*
X76948186Y-63931128D01*
X76948130Y-63933491D01*
X76945775Y-63993423D01*
X76947164Y-63998662D01*
X76947180Y-63998973D01*
X76947230Y-63999326D01*
X76947526Y-64001672D01*
X76947564Y-64002020D01*
X76947626Y-64002327D01*
X76947584Y-64007744D01*
X76964785Y-64065262D01*
X76965416Y-64067500D01*
X76979351Y-64120057D01*
X76979353Y-64120061D01*
X76980792Y-64125489D01*
X76983658Y-64130084D01*
X76983765Y-64130378D01*
X76983925Y-64130718D01*
X76984894Y-64132866D01*
X76985028Y-64133175D01*
X76985179Y-64133452D01*
X76986732Y-64138646D01*
X77017728Y-64185035D01*
X77020068Y-64188537D01*
X77021349Y-64190522D01*
X77049606Y-64235830D01*
X77053093Y-64241422D01*
X77057189Y-64244977D01*
X77057373Y-64245219D01*
X77057593Y-64245461D01*
X77059146Y-64247223D01*
X77059401Y-64247522D01*
X77059633Y-64247749D01*
X77062640Y-64252249D01*
X77066996Y-64255795D01*
X77109159Y-64290122D01*
X77110949Y-64291626D01*
X77156288Y-64330969D01*
X77161244Y-64333160D01*
X77161496Y-64333342D01*
X77161813Y-64333529D01*
X77163841Y-64334772D01*
X77164122Y-64334951D01*
X77164393Y-64335090D01*
X77168595Y-64338511D01*
X77173799Y-64340619D01*
X77173801Y-64340620D01*
X77224220Y-64361041D01*
X77226396Y-64361963D01*
X77276108Y-64383941D01*
X77276110Y-64383941D01*
X77281250Y-64386214D01*
X77286633Y-64386851D01*
X77286926Y-64386950D01*
X77287271Y-64387033D01*
X77289575Y-64387625D01*
X77289901Y-64387714D01*
X77290208Y-64387769D01*
X77295232Y-64389804D01*
X77339187Y-64393611D01*
X77355016Y-64394982D01*
X77357364Y-64395223D01*
X77416933Y-64402273D01*
X77422266Y-64401299D01*
X77422577Y-64401308D01*
X77422923Y-64401286D01*
X77425307Y-64401174D01*
X77425637Y-64401164D01*
X77425951Y-64401125D01*
X77431352Y-64401593D01*
X77450364Y-64397500D01*
X77490041Y-64388958D01*
X77492358Y-64388498D01*
X77545807Y-64378737D01*
X77545810Y-64378736D01*
X77551340Y-64377726D01*
X77556148Y-64375228D01*
X77556455Y-64375143D01*
X77556812Y-64375008D01*
X77559018Y-64374214D01*
X77559341Y-64374103D01*
X77559621Y-64373978D01*
X77564922Y-64372837D01*
X77569824Y-64370091D01*
X77569831Y-64370089D01*
X77617277Y-64343517D01*
X77619335Y-64342406D01*
X77672587Y-64314744D01*
X77678955Y-64309305D01*
X77678958Y-64309308D01*
X77680124Y-64308320D01*
X77684131Y-64306076D01*
X77697902Y-64291641D01*
X77723868Y-64264421D01*
X77725106Y-64263154D01*
X77752430Y-64235830D01*
X77759048Y-64229948D01*
X77783044Y-64211031D01*
X77787461Y-64207549D01*
X77821600Y-64158155D01*
X77822935Y-64156287D01*
X77832514Y-64143319D01*
X77858591Y-64108013D01*
X77860387Y-64102898D01*
X77860550Y-64102630D01*
X77860706Y-64102312D01*
X77861764Y-64100236D01*
X77861939Y-64099906D01*
X77862063Y-64099610D01*
X77865144Y-64095152D01*
X77883246Y-64037915D01*
X77883990Y-64035687D01*
X77901998Y-63984407D01*
X77903861Y-63979102D01*
X77904074Y-63973685D01*
X77904327Y-63972685D01*
X77905051Y-63968967D01*
X77906343Y-63964882D01*
X77907000Y-63956534D01*
X77907000Y-63900684D01*
X77907058Y-63897732D01*
X77907883Y-63876738D01*
X77909225Y-63842577D01*
X77907785Y-63837146D01*
X77907454Y-63834146D01*
X77907000Y-63825896D01*
X77907000Y-63387389D01*
X77913421Y-63356983D01*
X77935008Y-63308153D01*
X77946831Y-63281409D01*
X77953000Y-63232578D01*
X77953000Y-62012961D01*
X77944189Y-61960024D01*
X77939854Y-61933979D01*
X77939853Y-61933977D01*
X77938833Y-61927847D01*
X77935882Y-61922378D01*
X77933868Y-61916495D01*
X77935082Y-61916080D01*
X77928579Y-61871800D01*
X77955568Y-61828010D01*
X77987677Y-61813325D01*
X77991906Y-61813103D01*
X77996762Y-61811469D01*
X77996766Y-61811468D01*
X78123521Y-61768810D01*
X78123522Y-61768810D01*
X78128379Y-61767175D01*
X78132616Y-61764295D01*
X78132619Y-61764294D01*
X78243233Y-61689120D01*
X78247474Y-61686238D01*
X78264283Y-61666348D01*
X78337104Y-61580176D01*
X78337106Y-61580173D01*
X78340416Y-61576256D01*
X78400358Y-61445331D01*
X78422884Y-61303110D01*
X78423000Y-61292000D01*
X78403458Y-61149338D01*
X78346271Y-61017187D01*
X78255652Y-60905282D01*
X78138279Y-60821869D01*
X78133453Y-60820132D01*
X78133452Y-60820131D01*
X78007619Y-60774829D01*
X78002797Y-60773093D01*
X77859190Y-60762547D01*
X77854162Y-60763561D01*
X77854159Y-60763561D01*
X77723064Y-60789994D01*
X77723063Y-60789994D01*
X77718036Y-60791008D01*
X77589736Y-60856380D01*
X77585961Y-60859851D01*
X77585960Y-60859852D01*
X77487518Y-60950375D01*
X77487516Y-60950378D01*
X77483743Y-60953847D01*
X77481041Y-60958205D01*
X77420861Y-61055265D01*
X77407864Y-61076226D01*
X77406434Y-61081147D01*
X77406433Y-61081150D01*
X77369121Y-61209580D01*
X77367691Y-61214503D01*
X77366183Y-61358489D01*
X77403452Y-61497577D01*
X77406060Y-61501987D01*
X77406062Y-61501991D01*
X77408954Y-61506881D01*
X77418419Y-61557442D01*
X77393168Y-61602258D01*
X77360633Y-61618552D01*
X77357875Y-61619169D01*
X77352263Y-61619566D01*
X77224837Y-61668864D01*
X77220423Y-61672344D01*
X77159304Y-61720526D01*
X77148457Y-61727651D01*
X77085685Y-61761521D01*
X77034791Y-61768991D01*
X77008197Y-61757866D01*
X76941002Y-61712967D01*
X76941001Y-61712966D01*
X76934843Y-61708852D01*
X76852637Y-61692500D01*
X76652363Y-61692500D01*
X76570157Y-61708852D01*
X76548075Y-61723607D01*
X76544280Y-61726143D01*
X76494314Y-61738370D01*
X76460720Y-61726143D01*
X76456925Y-61723607D01*
X76434843Y-61708852D01*
X76352637Y-61692500D01*
X76152363Y-61692500D01*
X76070157Y-61708852D01*
X76048075Y-61723607D01*
X76044280Y-61726143D01*
X75994314Y-61738370D01*
X75960720Y-61726143D01*
X75956925Y-61723607D01*
X75934843Y-61708852D01*
X75852637Y-61692500D01*
X75652363Y-61692500D01*
X75570157Y-61708852D01*
X75552686Y-61720526D01*
X75546279Y-61724807D01*
X75496314Y-61737034D01*
X75462721Y-61724807D01*
X75456314Y-61720526D01*
X75438843Y-61708852D01*
X75356637Y-61692500D01*
X75156363Y-61692500D01*
X75074157Y-61708852D01*
X75046278Y-61727481D01*
X74996314Y-61739707D01*
X74962723Y-61727481D01*
X74934843Y-61708852D01*
X74852637Y-61692500D01*
X74652363Y-61692500D01*
X74570157Y-61708852D01*
X74548075Y-61723607D01*
X74544280Y-61726143D01*
X74494314Y-61738370D01*
X74460720Y-61726143D01*
X74456925Y-61723607D01*
X74434843Y-61708852D01*
X74352637Y-61692500D01*
X74152363Y-61692500D01*
X74070157Y-61708852D01*
X74048075Y-61723607D01*
X74044280Y-61726143D01*
X73994314Y-61738370D01*
X73960720Y-61726143D01*
X73956925Y-61723607D01*
X73934843Y-61708852D01*
X73852637Y-61692500D01*
X73652363Y-61692500D01*
X73570157Y-61708852D01*
X73548075Y-61723607D01*
X73544280Y-61726143D01*
X73494314Y-61738370D01*
X73460720Y-61726143D01*
X73456925Y-61723607D01*
X73434843Y-61708852D01*
X73352637Y-61692500D01*
X73152363Y-61692500D01*
X73070157Y-61708852D01*
X73063999Y-61712966D01*
X73063998Y-61712967D01*
X72996092Y-61758341D01*
X72946126Y-61770568D01*
X72907722Y-61753067D01*
X72907437Y-61753502D01*
X72904630Y-61751658D01*
X72903269Y-61751038D01*
X72902245Y-61750091D01*
X72902242Y-61750089D01*
X72897678Y-61745870D01*
X72880713Y-61738370D01*
X72871068Y-61734106D01*
X72846251Y-61716372D01*
X72843615Y-61713520D01*
X72843614Y-61713519D01*
X72839799Y-61709392D01*
X72721653Y-61640768D01*
X72716182Y-61639500D01*
X72716180Y-61639499D01*
X72638926Y-61621592D01*
X72595810Y-61593537D01*
X72580814Y-61544332D01*
X72587532Y-61517030D01*
X72618224Y-61449992D01*
X72620358Y-61445331D01*
X72642884Y-61303110D01*
X72643000Y-61292000D01*
X72623458Y-61149338D01*
X72566271Y-61017187D01*
X72475652Y-60905282D01*
X72358279Y-60821869D01*
X72353453Y-60820132D01*
X72353452Y-60820131D01*
X72227619Y-60774829D01*
X72222797Y-60773093D01*
X72079190Y-60762547D01*
X72074162Y-60763561D01*
X72074159Y-60763561D01*
X71943064Y-60789994D01*
X71943063Y-60789994D01*
X71938036Y-60791008D01*
X71809736Y-60856380D01*
X71805961Y-60859851D01*
X71805960Y-60859852D01*
X71707518Y-60950375D01*
X71707516Y-60950378D01*
X71703743Y-60953847D01*
X71701041Y-60958205D01*
X71640861Y-61055265D01*
X71627864Y-61076226D01*
X71626434Y-61081147D01*
X71626433Y-61081150D01*
X71589121Y-61209580D01*
X71587691Y-61214503D01*
X71586183Y-61358489D01*
X71623452Y-61497577D01*
X71696751Y-61621519D01*
X71700451Y-61625067D01*
X71786314Y-61707407D01*
X71800680Y-61721184D01*
X71927583Y-61789228D01*
X71932583Y-61790346D01*
X71932584Y-61790346D01*
X72023531Y-61810675D01*
X72066867Y-61838389D01*
X72082250Y-61887475D01*
X72075906Y-61914470D01*
X72058169Y-61954591D01*
X72052000Y-62003422D01*
X72052000Y-63223039D01*
X72053588Y-63232578D01*
X72061716Y-63281409D01*
X72066167Y-63308153D01*
X72069118Y-63313622D01*
X72088981Y-63350435D01*
X72098000Y-63386144D01*
X72098000Y-63413300D01*
X72080407Y-63461638D01*
X72035858Y-63487358D01*
X72022800Y-63488500D01*
X70245908Y-63488500D01*
X70197570Y-63470907D01*
X70192734Y-63466474D01*
X68988026Y-62261766D01*
X68966286Y-62215146D01*
X68966000Y-62208592D01*
X68966000Y-61398742D01*
X68965583Y-61395965D01*
X68965582Y-61395958D01*
X68958321Y-61347664D01*
X68950864Y-61298065D01*
X68892235Y-61175971D01*
X68800298Y-61076514D01*
X68683181Y-61008487D01*
X68677708Y-61007218D01*
X68677707Y-61007218D01*
X68570928Y-60982468D01*
X68566752Y-60981500D01*
X67232242Y-60981500D01*
X67229465Y-60981917D01*
X67229458Y-60981918D01*
X67181164Y-60989179D01*
X67131565Y-60996636D01*
X67101005Y-61011311D01*
X67014537Y-61052832D01*
X67014535Y-61052833D01*
X67009471Y-61055265D01*
X66910014Y-61147202D01*
X66841987Y-61264319D01*
X66815000Y-61380748D01*
X66815000Y-62215258D01*
X66815417Y-62218035D01*
X66815418Y-62218042D01*
X66817705Y-62233252D01*
X66830136Y-62315935D01*
X66888765Y-62438029D01*
X66980702Y-62537486D01*
X67097819Y-62605513D01*
X67103292Y-62606782D01*
X67103293Y-62606782D01*
X67188183Y-62626458D01*
X67214248Y-62632500D01*
X68042092Y-62632500D01*
X68090430Y-62650093D01*
X68095266Y-62654526D01*
X69683670Y-64242930D01*
X69689552Y-64249548D01*
X69711951Y-64277961D01*
X69716578Y-64281159D01*
X69716579Y-64281160D01*
X69729546Y-64290122D01*
X69761148Y-64311963D01*
X69761285Y-64312058D01*
X69763195Y-64313422D01*
X69776672Y-64323377D01*
X69802070Y-64342136D01*
X69811486Y-64349091D01*
X69816598Y-64350886D01*
X69816855Y-64351042D01*
X69817166Y-64351194D01*
X69819281Y-64352271D01*
X69819610Y-64352445D01*
X69819890Y-64352562D01*
X69824348Y-64355644D01*
X69829709Y-64357339D01*
X69829710Y-64357340D01*
X69881549Y-64373734D01*
X69883791Y-64374482D01*
X69935098Y-64392500D01*
X69935099Y-64392500D01*
X69940398Y-64394361D01*
X69945811Y-64394574D01*
X69946812Y-64394826D01*
X69950531Y-64395551D01*
X69954618Y-64396843D01*
X69959926Y-64397261D01*
X69961488Y-64397384D01*
X69961496Y-64397384D01*
X69962966Y-64397500D01*
X70018816Y-64397500D01*
X70021768Y-64397558D01*
X70076923Y-64399725D01*
X70082354Y-64398285D01*
X70085354Y-64397954D01*
X70093604Y-64397500D01*
X72492383Y-64397500D01*
X72509363Y-64399442D01*
X72510585Y-64399725D01*
X72516448Y-64401084D01*
X72543019Y-64399203D01*
X72554813Y-64399295D01*
X72581352Y-64401593D01*
X72586846Y-64400410D01*
X72586849Y-64400410D01*
X72611482Y-64395107D01*
X72621996Y-64393611D01*
X72640749Y-64392283D01*
X72652737Y-64391434D01*
X72661921Y-64387881D01*
X72677872Y-64383651D01*
X72687612Y-64382187D01*
X72692688Y-64379750D01*
X72709416Y-64374022D01*
X72714922Y-64372837D01*
X72741816Y-64357775D01*
X72751420Y-64353257D01*
X72774918Y-64344166D01*
X72774923Y-64344163D01*
X72780163Y-64342136D01*
X72787893Y-64336042D01*
X72801899Y-64327307D01*
X72805712Y-64325476D01*
X72810777Y-64323044D01*
X72810937Y-64323377D01*
X72857402Y-64311621D01*
X72903714Y-64334011D01*
X72924798Y-64380931D01*
X72925000Y-64386436D01*
X72925000Y-65537197D01*
X72907407Y-65585535D01*
X72902974Y-65590371D01*
X72567813Y-65925532D01*
X72521193Y-65947272D01*
X72487560Y-65942095D01*
X72483141Y-65939143D01*
X72420412Y-65926665D01*
X72408125Y-65924221D01*
X72408124Y-65924221D01*
X72404500Y-65923500D01*
X71504500Y-65923500D01*
X71500876Y-65924221D01*
X71500875Y-65924221D01*
X71460642Y-65932224D01*
X71425859Y-65939143D01*
X71419701Y-65943257D01*
X71419700Y-65943258D01*
X71383261Y-65967606D01*
X71359190Y-65983690D01*
X71355076Y-65989847D01*
X71330200Y-66027077D01*
X71314643Y-66050359D01*
X71299000Y-66129000D01*
X71299000Y-66629000D01*
X71299721Y-66632624D01*
X71299721Y-66632625D01*
X71308463Y-66676574D01*
X71314643Y-66707641D01*
X71359190Y-66774310D01*
X71425859Y-66818857D01*
X71504500Y-66834500D01*
X72404500Y-66834500D01*
X72483141Y-66818857D01*
X72549810Y-66774310D01*
X72573879Y-66738289D01*
X72616940Y-66707432D01*
X72645271Y-66699841D01*
X72651676Y-66698421D01*
X72684741Y-66692591D01*
X72684742Y-66692591D01*
X72691222Y-66691448D01*
X72696920Y-66688158D01*
X72702148Y-66686255D01*
X72706624Y-66684401D01*
X72711664Y-66682051D01*
X72718021Y-66680348D01*
X72731939Y-66670603D01*
X72750913Y-66657317D01*
X72756445Y-66653792D01*
X72785532Y-66636998D01*
X72791227Y-66633710D01*
X72795453Y-66628674D01*
X72795455Y-66628672D01*
X72816664Y-66603395D01*
X72821097Y-66598558D01*
X73472058Y-65947597D01*
X73476895Y-65943164D01*
X73502172Y-65921955D01*
X73502174Y-65921953D01*
X73507210Y-65917727D01*
X73527292Y-65882945D01*
X73530809Y-65877425D01*
X73535200Y-65871154D01*
X73577334Y-65841649D01*
X73628579Y-65846131D01*
X73664953Y-65882503D01*
X73670852Y-65909106D01*
X73671638Y-65909029D01*
X73672000Y-65912704D01*
X73672000Y-65916400D01*
X73672721Y-65920024D01*
X73672721Y-65920025D01*
X73678206Y-65947597D01*
X73687643Y-65995041D01*
X73691756Y-66001197D01*
X73691758Y-66001201D01*
X73709048Y-66027077D01*
X73721275Y-66077042D01*
X73715154Y-66095741D01*
X73716278Y-66096150D01*
X73684116Y-66184514D01*
X73677020Y-66204009D01*
X73677000Y-66204238D01*
X73677000Y-66365119D01*
X73675858Y-66378177D01*
X73675569Y-66379813D01*
X73675568Y-66379819D01*
X73675000Y-66383043D01*
X73675000Y-66404380D01*
X73657407Y-66452718D01*
X73611565Y-66478654D01*
X73605314Y-66479644D01*
X73605313Y-66479644D01*
X73599468Y-66480570D01*
X73542582Y-66509555D01*
X73497797Y-66532374D01*
X73479458Y-66541718D01*
X73384218Y-66636958D01*
X73381530Y-66642234D01*
X73381529Y-66642235D01*
X73373633Y-66657732D01*
X73323070Y-66756968D01*
X73321298Y-66768156D01*
X73305397Y-66868555D01*
X73302000Y-66890000D01*
X73302926Y-66895847D01*
X73311588Y-66950536D01*
X73301773Y-67001031D01*
X73261797Y-67033403D01*
X73237314Y-67037500D01*
X73204500Y-67037500D01*
X73125859Y-67053143D01*
X73119701Y-67057257D01*
X73119700Y-67057258D01*
X73065347Y-67093576D01*
X73059190Y-67097690D01*
X73014643Y-67164359D01*
X72999000Y-67243000D01*
X72999000Y-67849592D01*
X72981407Y-67897930D01*
X72976974Y-67902766D01*
X72307266Y-68572474D01*
X72260646Y-68594214D01*
X72254092Y-68594500D01*
X70283908Y-68594500D01*
X70235570Y-68576907D01*
X70230734Y-68572474D01*
X69573830Y-67915570D01*
X69567948Y-67908952D01*
X69549031Y-67884956D01*
X69545549Y-67880539D01*
X69496155Y-67846400D01*
X69494287Y-67845065D01*
X69455859Y-67816681D01*
X69446013Y-67809409D01*
X69440898Y-67807613D01*
X69440630Y-67807450D01*
X69440312Y-67807294D01*
X69438236Y-67806236D01*
X69437906Y-67806061D01*
X69437610Y-67805937D01*
X69433152Y-67802856D01*
X69375915Y-67784754D01*
X69373700Y-67784014D01*
X69317102Y-67764139D01*
X69311685Y-67763926D01*
X69310685Y-67763673D01*
X69306967Y-67762949D01*
X69302882Y-67761657D01*
X69297574Y-67761239D01*
X69296012Y-67761116D01*
X69296004Y-67761116D01*
X69294534Y-67761000D01*
X69238684Y-67761000D01*
X69235732Y-67760942D01*
X69234639Y-67760899D01*
X69180577Y-67758775D01*
X69175146Y-67760215D01*
X69172146Y-67760546D01*
X69163896Y-67761000D01*
X67926408Y-67761000D01*
X67878070Y-67743407D01*
X67873234Y-67738974D01*
X67667664Y-67533404D01*
X67645924Y-67486784D01*
X67655812Y-67442459D01*
X67673189Y-67412543D01*
X67673189Y-67412542D01*
X67676013Y-67407681D01*
X67682660Y-67379007D01*
X67702032Y-67295428D01*
X67703000Y-67291252D01*
X67703000Y-66506742D01*
X67702583Y-66503965D01*
X67702582Y-66503958D01*
X67694244Y-66448500D01*
X67687864Y-66406065D01*
X67629235Y-66283971D01*
X67537298Y-66184514D01*
X67494428Y-66159613D01*
X67461468Y-66120122D01*
X67457000Y-66094588D01*
X67457000Y-65714408D01*
X67474593Y-65666070D01*
X67479026Y-65661234D01*
X67685734Y-65454526D01*
X67732354Y-65432786D01*
X67738908Y-65432500D01*
X68548758Y-65432500D01*
X68551535Y-65432083D01*
X68551542Y-65432082D01*
X68599836Y-65424821D01*
X68649435Y-65417364D01*
X68755567Y-65366400D01*
X68766463Y-65361168D01*
X68766465Y-65361167D01*
X68771529Y-65358735D01*
X68870986Y-65266798D01*
X68939013Y-65149681D01*
X68954326Y-65083619D01*
X68965032Y-65037428D01*
X68966000Y-65033252D01*
X68966000Y-64198742D01*
X68965583Y-64195965D01*
X68965582Y-64195958D01*
X68956251Y-64133897D01*
X68950864Y-64098065D01*
X68907492Y-64007744D01*
X68894668Y-63981037D01*
X68894667Y-63981035D01*
X68892235Y-63975971D01*
X68800298Y-63876514D01*
X68683181Y-63808487D01*
X68677708Y-63807218D01*
X68677707Y-63807218D01*
X68570928Y-63782468D01*
X68566752Y-63781500D01*
X67232242Y-63781500D01*
X67229465Y-63781917D01*
X67229458Y-63781918D01*
X67181164Y-63789179D01*
X67131565Y-63796636D01*
X67061956Y-63830062D01*
X67014537Y-63852832D01*
X67014535Y-63852833D01*
X67009471Y-63855265D01*
X66910014Y-63947202D01*
X66841987Y-64064319D01*
X66840718Y-64069792D01*
X66840718Y-64069793D01*
X66826027Y-64133175D01*
X66815000Y-64180748D01*
X66815000Y-65008592D01*
X66797407Y-65056930D01*
X66792974Y-65061766D01*
X66702570Y-65152170D01*
X66695952Y-65158052D01*
X66667539Y-65180451D01*
X66633400Y-65229845D01*
X66632074Y-65231701D01*
X66596409Y-65279987D01*
X66594613Y-65285102D01*
X66594450Y-65285370D01*
X66594294Y-65285688D01*
X66593236Y-65287764D01*
X66593061Y-65288094D01*
X66592937Y-65288390D01*
X66589856Y-65292848D01*
X66588161Y-65298208D01*
X66571758Y-65350073D01*
X66571014Y-65352300D01*
X66551139Y-65408898D01*
X66550926Y-65414315D01*
X66550673Y-65415315D01*
X66549949Y-65419033D01*
X66548657Y-65423118D01*
X66548000Y-65431466D01*
X66548000Y-65487316D01*
X66547942Y-65490268D01*
X66545775Y-65545423D01*
X66547215Y-65550854D01*
X66547546Y-65553854D01*
X66548000Y-65562104D01*
X66548000Y-66091211D01*
X66530407Y-66139549D01*
X66505355Y-66158999D01*
X66496471Y-66163265D01*
X66397014Y-66255202D01*
X66328987Y-66372319D01*
X66327718Y-66377792D01*
X66327718Y-66377793D01*
X66321165Y-66406065D01*
X66306669Y-66468607D01*
X66305358Y-66474261D01*
X66277304Y-66517378D01*
X66228099Y-66532374D01*
X66180766Y-66512234D01*
X66157453Y-66466380D01*
X66156900Y-66457281D01*
X66156900Y-60067849D01*
X66174493Y-60019511D01*
X66219042Y-59993791D01*
X66269700Y-60002724D01*
X66286012Y-60015422D01*
X66292427Y-60022018D01*
X66489923Y-60225108D01*
X66725697Y-60410644D01*
X66727837Y-60411909D01*
X66727839Y-60411911D01*
X66981793Y-60562099D01*
X66983939Y-60563368D01*
X67260110Y-60680596D01*
X67549360Y-60760269D01*
X67551823Y-60760606D01*
X67551826Y-60760607D01*
X67655652Y-60774829D01*
X67846606Y-60800986D01*
X67849085Y-60800995D01*
X67849090Y-60800995D01*
X68005679Y-60801541D01*
X68146626Y-60802033D01*
X68396949Y-60769522D01*
X68441678Y-60763713D01*
X68441679Y-60763713D01*
X68444149Y-60763392D01*
X68733948Y-60685741D01*
X68736243Y-60684786D01*
X68736248Y-60684784D01*
X68859731Y-60633383D01*
X69010932Y-60570444D01*
X69270233Y-60419527D01*
X69280052Y-60411911D01*
X69505331Y-60237166D01*
X69507297Y-60235641D01*
X69620902Y-60120439D01*
X69716203Y-60023798D01*
X69716205Y-60023795D01*
X69717958Y-60022018D01*
X69898516Y-59782409D01*
X70045798Y-59521026D01*
X70157216Y-59242460D01*
X70230814Y-58951605D01*
X70265298Y-58653571D01*
X70266822Y-58591236D01*
X70267959Y-58544686D01*
X70267959Y-58544682D01*
X70268000Y-58543000D01*
X70248116Y-58243638D01*
X70188815Y-57949535D01*
X70091137Y-57665858D01*
X69998242Y-57480351D01*
X69957917Y-57399823D01*
X69957915Y-57399820D01*
X69956800Y-57397593D01*
X69788162Y-57149450D01*
X69588188Y-56925791D01*
X69473739Y-56827696D01*
X69448487Y-56782882D01*
X69457949Y-56732320D01*
X69497698Y-56699670D01*
X69522677Y-56695400D01*
X81956265Y-56695400D01*
X81977046Y-56698329D01*
G37*
G04 #@! TD.AperFunction*
G04 #@! TA.AperFunction,Conductor*
G36*
X75029935Y-65081033D02*
G01*
X75039976Y-65089459D01*
X75152974Y-65202457D01*
X75174714Y-65249077D01*
X75175000Y-65255631D01*
X75175000Y-65343911D01*
X75173555Y-65358581D01*
X75173041Y-65361168D01*
X75172000Y-65366400D01*
X75172000Y-65916400D01*
X75172721Y-65920022D01*
X75172721Y-65920027D01*
X75173555Y-65924219D01*
X75175000Y-65938889D01*
X75175000Y-66113911D01*
X75173555Y-66128581D01*
X75172737Y-66132696D01*
X75172000Y-66136400D01*
X75172000Y-66686400D01*
X75172721Y-66690022D01*
X75172721Y-66690027D01*
X75173555Y-66694219D01*
X75175000Y-66708889D01*
X75175000Y-66984105D01*
X75157407Y-67032443D01*
X75130411Y-67052238D01*
X75125859Y-67053143D01*
X75059190Y-67097690D01*
X75056422Y-67101833D01*
X75011054Y-67122989D01*
X74961367Y-67109675D01*
X74953288Y-67102896D01*
X74949810Y-67097690D01*
X74883141Y-67053143D01*
X74877657Y-67052052D01*
X74840497Y-67018000D01*
X74832000Y-66983277D01*
X74832000Y-66908994D01*
X74832286Y-66902440D01*
X74835162Y-66869574D01*
X74835162Y-66869572D01*
X74835735Y-66863020D01*
X74832562Y-66851178D01*
X74830000Y-66831715D01*
X74830000Y-66708889D01*
X74831445Y-66694219D01*
X74832279Y-66690027D01*
X74832279Y-66690022D01*
X74833000Y-66686400D01*
X74833000Y-66136400D01*
X74832264Y-66132696D01*
X74831445Y-66128581D01*
X74830000Y-66113911D01*
X74830000Y-65938889D01*
X74831445Y-65924219D01*
X74832279Y-65920027D01*
X74832279Y-65920022D01*
X74833000Y-65916400D01*
X74833000Y-65366400D01*
X74831960Y-65361168D01*
X74831445Y-65358581D01*
X74830000Y-65343911D01*
X74830000Y-65224235D01*
X74847593Y-65175897D01*
X74852026Y-65171061D01*
X74933628Y-65089459D01*
X74980248Y-65067719D01*
X75029935Y-65081033D01*
G37*
G04 #@! TD.AperFunction*
M02*
